<svg width="301" height="328" viewBox="0 0 301 328" fill="none" xmlns="http://www.w3.org/2000/svg">
<path d="M18.2357 125.9V46.3368H3.73572V38.4173H18.2357V27.8286C18.2357 18.8768 20.5096 12.0045 25.0722 7.21155C29.6349 2.40385 35.9841 0 44.1348 0C47.8115 0 51.2372 0.457174 54.4118 1.37152L53.6883 9.45317C50.9861 8.80428 48.0478 8.47983 44.8584 8.47983C39.5131 8.47983 35.364 10.1316 32.3961 13.4498C29.4281 16.768 27.9368 21.4724 27.9368 27.5631V38.4026H48.8303V46.322H27.9368V125.885H18.2209L18.2357 125.9Z" fill="white"/>
<path d="M108.248 127.507C100.806 127.507 94.0726 125.679 88.0482 122.006C82.0238 118.334 77.343 113.232 74.006 106.684C70.6541 100.136 68.9856 92.7915 68.9856 84.6509V81.1704C68.9856 72.7644 70.6246 65.1841 73.8878 58.4445C77.1511 51.7049 81.6989 46.4105 87.5314 42.5614C93.3639 38.7123 99.6688 36.7804 106.476 36.7804C117.107 36.7804 125.538 40.4083 131.77 47.6493C138.001 54.9051 141.116 64.8007 141.116 77.3656V82.7779H78.6129V84.6361C78.6129 94.5612 81.4627 102.82 87.1475 109.427C92.8471 116.034 100.008 119.337 108.646 119.337C113.829 119.337 118.407 118.393 122.364 116.506C126.336 114.618 129.939 111.595 133.172 107.451L139.241 112.067C132.124 122.36 121.788 127.507 108.233 127.507H108.248ZM106.461 45.0242C99.1816 45.0242 93.039 47.6935 88.0482 53.0321C83.0574 58.3708 80.0156 65.5381 78.9377 74.5341H131.474V73.487C131.208 65.0809 128.802 58.238 124.269 52.9437C119.736 47.664 113.8 45.0242 106.461 45.0242Z" fill="white"/>
<path d="M177.056 125.9V46.3368H162.571V38.4174H177.056V27.8286C177.056 18.8769 179.33 12.0045 183.893 7.21158C188.455 2.41863 194.805 0.0147858 202.955 0.0147858C206.632 0.0147858 210.058 0.471959 213.232 1.38631L212.509 9.46796C209.807 8.81907 206.868 8.49462 203.679 8.49462C198.334 8.49462 194.185 10.1463 191.217 13.4645C188.249 16.7827 186.757 21.4872 186.757 27.5779V38.4174H207.651V46.3368H186.757V125.9H177.041H177.056Z" fill="white"/>
<path d="M291.447 114.824C285.614 123.289 276.312 127.522 263.51 127.522C254.178 127.522 247.076 124.808 242.218 119.396C237.36 113.984 234.879 105.961 234.776 95.3428V38.4026H244.403V94.1188C244.403 110.784 251.151 119.101 264.647 119.101C278.143 119.101 287.563 113.305 291.284 101.714V38.4026H301V125.885H291.609L291.447 114.81V114.824Z" fill="white"/>
<path d="M17.8223 325.729V229.575H0V203.044H17.8223V193.296C17.8223 179.315 21.9419 168.461 30.196 160.763C38.45 153.05 50.0264 149.201 64.9398 149.201C70.3884 149.201 76.3685 149.997 82.8802 151.575L82.9983 179.699C80.6506 179.02 77.5055 178.681 73.5778 178.681C62.0014 178.681 56.2132 183.666 56.2132 193.65V203.059H80.1633V229.59H56.2132V325.744H17.8223V325.729Z" fill="white"/>
<path d="M129.821 171.411C129.821 165.969 131.784 161.515 135.727 158.035C139.655 154.554 144.764 152.814 151.054 152.814C157.344 152.814 162.438 154.554 166.381 158.035C170.308 161.515 172.287 165.969 172.287 171.411C172.287 176.852 170.323 181.321 166.381 184.787C162.438 188.267 157.329 190.007 151.054 190.007C144.778 190.007 139.655 188.267 135.727 184.787C131.784 181.306 129.821 176.852 129.821 171.411ZM170.456 325.729H132.08V203.044H170.456V325.729Z" fill="white"/>
<path d="M275.071 172.546V203.044H295.286V229.575H275.071V285.704C275.071 290.32 275.898 293.535 277.567 295.349C279.235 297.163 282.528 298.077 287.445 298.077C291.225 298.077 294.4 297.856 296.984 297.399V324.726C290.103 326.923 282.912 328.015 275.411 328.015C262.24 328.015 252.509 324.918 246.234 318.724C239.944 312.53 236.813 303.121 236.813 290.497V229.604H221.147V203.074H236.813V172.576H275.071V172.546Z" fill="white"/>
</svg>
